<svg width="108" height="24" viewBox="0 0 108 24" fill="none" xmlns="http://www.w3.org/2000/svg">
<path d="M39.412 6.537C39.37 6.607 39.3233 6.66067 39.272 6.698C39.2253 6.73067 39.167 6.747 39.097 6.747C39.0177 6.747 38.9243 6.70733 38.817 6.628C38.7097 6.54867 38.5743 6.46233 38.411 6.369C38.2523 6.271 38.0587 6.18233 37.83 6.103C37.606 6.02367 37.333 5.984 37.011 5.984C36.7077 5.984 36.4393 6.026 36.206 6.11C35.9773 6.18933 35.7837 6.299 35.625 6.439C35.471 6.579 35.3543 6.74467 35.275 6.936C35.1957 7.12267 35.156 7.32567 35.156 7.545C35.156 7.825 35.2237 8.05833 35.359 8.245C35.499 8.427 35.681 8.58333 35.905 8.714C36.1337 8.84467 36.3903 8.959 36.675 9.057C36.9643 9.15033 37.2583 9.24833 37.557 9.351C37.8603 9.45367 38.1543 9.57033 38.439 9.701C38.7283 9.827 38.985 9.988 39.209 10.184C39.4377 10.38 39.6197 10.6203 39.755 10.905C39.895 11.1897 39.965 11.5397 39.965 11.955C39.965 12.3937 39.8903 12.8067 39.741 13.194C39.5917 13.5767 39.3723 13.9103 39.083 14.195C38.7983 14.4797 38.446 14.7037 38.026 14.867C37.6107 15.0303 37.137 15.112 36.605 15.112C35.9517 15.112 35.359 14.9953 34.827 14.762C34.295 14.524 33.84 14.2043 33.462 13.803L33.854 13.159C33.8913 13.1077 33.9357 13.0657 33.987 13.033C34.043 12.9957 34.1037 12.977 34.169 12.977C34.2297 12.977 34.2973 13.0027 34.372 13.054C34.4513 13.1007 34.54 13.1613 34.638 13.236C34.736 13.3107 34.848 13.3923 34.974 13.481C35.1 13.5697 35.2423 13.6513 35.401 13.726C35.5643 13.8007 35.7487 13.8637 35.954 13.915C36.1593 13.9617 36.3903 13.985 36.647 13.985C36.969 13.985 37.256 13.9407 37.508 13.852C37.76 13.7633 37.9723 13.6397 38.145 13.481C38.3223 13.3177 38.4577 13.124 38.551 12.9C38.6443 12.676 38.691 12.4263 38.691 12.151C38.691 11.8477 38.621 11.6003 38.481 11.409C38.3457 11.213 38.166 11.0497 37.942 10.919C37.718 10.7883 37.4613 10.6787 37.172 10.59C36.8827 10.4967 36.5887 10.4033 36.29 10.31C35.9913 10.212 35.6973 10.1 35.408 9.974C35.1187 9.848 34.862 9.68467 34.638 9.484C34.414 9.28333 34.232 9.03367 34.092 8.735C33.9567 8.43167 33.889 8.05833 33.889 7.615C33.889 7.26033 33.9567 6.91733 34.092 6.586C34.232 6.25467 34.4327 5.96067 34.694 5.704C34.96 5.44733 35.2843 5.242 35.667 5.088C36.0543 4.934 36.4977 4.857 36.997 4.857C37.557 4.857 38.0657 4.94567 38.523 5.123C38.985 5.30033 39.391 5.557 39.741 5.893L39.412 6.537ZM42.8362 7.909V15H41.5902V7.909H42.8362ZM43.1022 5.683C43.1022 5.80433 43.0765 5.91867 43.0252 6.026C42.9785 6.12867 42.9132 6.222 42.8292 6.306C42.7499 6.38533 42.6542 6.44833 42.5422 6.495C42.4349 6.54167 42.3205 6.565 42.1992 6.565C42.0779 6.565 41.9635 6.54167 41.8562 6.495C41.7535 6.44833 41.6625 6.38533 41.5832 6.306C41.5039 6.222 41.4409 6.12867 41.3942 6.026C41.3475 5.91867 41.3242 5.80433 41.3242 5.683C41.3242 5.56167 41.3475 5.44733 41.3942 5.34C41.4409 5.228 41.5039 5.13233 41.5832 5.053C41.6625 4.969 41.7535 4.90367 41.8562 4.857C41.9635 4.81033 42.0779 4.787 42.1992 4.787C42.3205 4.787 42.4349 4.81033 42.5422 4.857C42.6542 4.90367 42.7499 4.969 42.8292 5.053C42.9132 5.13233 42.9785 5.228 43.0252 5.34C43.0765 5.44733 43.1022 5.56167 43.1022 5.683ZM47.3545 11.535C47.6065 11.535 47.8282 11.5 48.0195 11.43C48.2108 11.36 48.3718 11.262 48.5025 11.136C48.6332 11.01 48.7312 10.8607 48.7965 10.688C48.8618 10.5107 48.8945 10.317 48.8945 10.107C48.8945 9.673 48.7615 9.32767 48.4955 9.071C48.2342 8.81433 47.8538 8.686 47.3545 8.686C46.8505 8.686 46.4655 8.81433 46.1995 9.071C45.9382 9.32767 45.8075 9.673 45.8075 10.107C45.8075 10.317 45.8402 10.5107 45.9055 10.688C45.9755 10.8607 46.0758 11.01 46.2065 11.136C46.3372 11.262 46.4982 11.36 46.6895 11.43C46.8808 11.5 47.1025 11.535 47.3545 11.535ZM49.6015 15.385C49.6015 15.2123 49.5525 15.0723 49.4545 14.965C49.3565 14.8577 49.2235 14.7737 49.0555 14.713C48.8922 14.6523 48.7008 14.6103 48.4815 14.587C48.2622 14.559 48.0288 14.538 47.7815 14.524C47.5388 14.51 47.2915 14.496 47.0395 14.482C46.7875 14.468 46.5448 14.4447 46.3115 14.412C46.0502 14.5333 45.8355 14.6873 45.6675 14.874C45.5042 15.056 45.4225 15.2707 45.4225 15.518C45.4225 15.6767 45.4622 15.8237 45.5415 15.959C45.6255 16.099 45.7515 16.218 45.9195 16.316C46.0875 16.4187 46.2975 16.498 46.5495 16.554C46.8062 16.6147 47.1072 16.645 47.4525 16.645C47.7885 16.645 48.0895 16.6147 48.3555 16.554C48.6215 16.4933 48.8455 16.407 49.0275 16.295C49.2142 16.183 49.3565 16.05 49.4545 15.896C49.5525 15.742 49.6015 15.5717 49.6015 15.385ZM50.8685 8.189V8.651C50.8685 8.805 50.7705 8.903 50.5745 8.945L49.7695 9.05C49.9282 9.358 50.0075 9.69867 50.0075 10.072C50.0075 10.4173 49.9398 10.7323 49.8045 11.017C49.6738 11.297 49.4918 11.5373 49.2585 11.738C49.0252 11.9387 48.7452 12.0927 48.4185 12.2C48.0918 12.3073 47.7372 12.361 47.3545 12.361C47.0232 12.361 46.7105 12.3213 46.4165 12.242C46.2672 12.3353 46.1528 12.4357 46.0735 12.543C45.9942 12.6457 45.9545 12.7507 45.9545 12.858C45.9545 13.026 46.0222 13.1543 46.1575 13.243C46.2975 13.327 46.4795 13.3877 46.7035 13.425C46.9275 13.4623 47.1818 13.4857 47.4665 13.495C47.7558 13.5043 48.0498 13.5207 48.3485 13.544C48.6518 13.5627 48.9458 13.5977 49.2305 13.649C49.5198 13.7003 49.7765 13.7843 50.0005 13.901C50.2245 14.0177 50.4042 14.1787 50.5395 14.384C50.6795 14.5893 50.7495 14.8553 50.7495 15.182C50.7495 15.4853 50.6725 15.7793 50.5185 16.064C50.3692 16.3487 50.1522 16.6007 49.8675 16.82C49.5828 17.044 49.2328 17.2213 48.8175 17.352C48.4068 17.4873 47.9425 17.555 47.4245 17.555C46.9065 17.555 46.4538 17.5037 46.0665 17.401C45.6792 17.2983 45.3572 17.1607 45.1005 16.988C44.8438 16.8153 44.6502 16.6147 44.5195 16.386C44.3935 16.162 44.3305 15.9263 44.3305 15.679C44.3305 15.329 44.4402 15.0327 44.6595 14.79C44.8788 14.5473 45.1798 14.3537 45.5625 14.209C45.3525 14.1157 45.1845 13.992 45.0585 13.838C44.9372 13.6793 44.8765 13.467 44.8765 13.201C44.8765 13.0983 44.8952 12.9933 44.9325 12.886C44.9698 12.774 45.0258 12.6643 45.1005 12.557C45.1798 12.445 45.2755 12.34 45.3875 12.242C45.4995 12.144 45.6302 12.0577 45.7795 11.983C45.4295 11.787 45.1565 11.528 44.9605 11.206C44.7645 10.8793 44.6665 10.5013 44.6665 10.072C44.6665 9.72667 44.7318 9.414 44.8625 9.134C44.9978 8.84933 45.1845 8.609 45.4225 8.413C45.6605 8.21233 45.9428 8.05833 46.2695 7.951C46.6008 7.84367 46.9625 7.79 47.3545 7.79C47.6625 7.79 47.9495 7.825 48.2155 7.895C48.4815 7.96033 48.7242 8.05833 48.9435 8.189H50.8685ZM53.3329 8.938C53.4869 8.76533 53.6503 8.609 53.8229 8.469C53.9956 8.329 54.1776 8.21 54.3689 8.112C54.5649 8.00933 54.7703 7.93233 54.9849 7.881C55.2043 7.825 55.4399 7.797 55.6919 7.797C56.0793 7.797 56.4199 7.86233 56.7139 7.993C57.0126 8.119 57.2599 8.301 57.4559 8.539C57.6566 8.77233 57.8083 9.05467 57.9109 9.386C58.0136 9.71733 58.0649 10.0837 58.0649 10.485V15H56.8119V10.485C56.8119 9.94833 56.6883 9.533 56.4409 9.239C56.1983 8.94033 55.8273 8.791 55.3279 8.791C54.9593 8.791 54.6139 8.87967 54.2919 9.057C53.9746 9.23433 53.6806 9.47467 53.4099 9.778V15H52.1569V7.909H52.9059C53.0833 7.909 53.1929 7.99533 53.2349 8.168L53.3329 8.938ZM65.1976 15H63.8396V4.969H65.1976V15ZM68.536 8.938C68.69 8.76533 68.8534 8.609 69.026 8.469C69.1987 8.329 69.3807 8.21 69.572 8.112C69.768 8.00933 69.9734 7.93233 70.188 7.881C70.4074 7.825 70.643 7.797 70.895 7.797C71.2824 7.797 71.623 7.86233 71.917 7.993C72.2157 8.119 72.463 8.301 72.659 8.539C72.8597 8.77233 73.0114 9.05467 73.114 9.386C73.2167 9.71733 73.268 10.0837 73.268 10.485V15H72.015V10.485C72.015 9.94833 71.8914 9.533 71.644 9.239C71.4014 8.94033 71.0304 8.791 70.531 8.791C70.1624 8.791 69.817 8.87967 69.495 9.057C69.1777 9.23433 68.8837 9.47467 68.613 9.778V15H67.36V7.909H68.109C68.2864 7.909 68.396 7.99533 68.438 8.168L68.536 8.938Z" fill="black"/>
<path d="M101.268 9.06113L97.0023 12.4954C96.1951 13.1283 95.0635 13.1283 94.2563 12.4954L89.9542 9.06113" stroke="#200E32" stroke-width="1.5" stroke-linecap="round" stroke-linejoin="round"/>
<path fill-rule="evenodd" clip-rule="evenodd" d="M90.8879 3.5H100.316C101.675 3.51525 102.969 4.08993 103.896 5.0902C104.823 6.09048 105.302 7.42903 105.222 8.79412V15.322C105.302 16.6871 104.823 18.0256 103.896 19.0259C102.969 20.0262 101.675 20.6009 100.316 20.6161H90.8879C87.968 20.6161 86 18.2407 86 15.322V8.79412C86 5.87545 87.968 3.5 90.8879 3.5Z" stroke="#200E32" stroke-width="1.5" stroke-linecap="round" stroke-linejoin="round"/>
</svg>
